<?xml version="1.0" standalone="no"?>
<!DOCTYPE svg PUBLIC "-//W3C//DTD SVG 1.1//EN" "http://www.w3.org/Graphics/SVG/1.1/DTD/svg11.dtd" >
<svg xmlns="http://www.w3.org/2000/svg" xmlns:xlink="http://www.w3.org/1999/xlink" version="1.1">
<metadata>
Created by FontForge 20161116 at Mon Mar  6 16:14:08 2017
 By Jimmy Warting
</metadata>
<defs>
<font id="Interactions_font" horiz-adv-x="1024" >
  <font-face 
    font-family="Interactions_font"
    font-weight="400"
    font-stretch="normal"
    units-per-em="1024"
    panose-1="2 0 5 3 0 0 0 0 0 0"
    ascent="960"
    descent="-64"
    bbox="-0.004 -64.0003 1191.96 1003.54"
    underline-thickness="0"
    underline-position="0"
    unicode-range="U+0020-E91C3"
  />
    <missing-glyph />
    <glyph glyph-name="space" unicode=" " horiz-adv-x="512" 
 />
    <glyph glyph-name="background-icon" unicode="&#xe006;" horiz-adv-x="1207" 
d="M556.182 107.187c-23.022 -23.043 -53.835 -35.719 -86.753 -35.719s-63.71 12.677 -86.732 35.719l-267.476 267.455c-23.022 23.022 -35.699 53.835 -35.699 86.753c0 31.426 11.675 60.848 32.775 83.502c85.076 -58.823 230.632 -96.076 402.584 -96.076
c11.532 0 23.043 0.204 34.513 0.552c11.9 -27.807 39.502 -47.312 71.664 -47.312c43.059 0 77.961 34.901 77.961 77.941c0 43.059 -34.901 77.961 -77.961 77.961c-31.896 0 -59.253 -19.24 -71.316 -46.678c-11.634 -0.388 -23.145 -1.125 -34.861 -1.125
c-158.723 0 -286.429 34.615 -358.216 79.433l0.164 0.143c-16.52 11.225 -32.019 24.229 -47.026 39.645c-10.755 13.801 -16.623 27.848 -16.623 41.628c0 54.1 76.775 105.297 192.561 134.392l-126.255 -126.255c15.375 -15.928 30.915 -28.338 48.253 -38.5
l276.145 276.165l440.961 -440.961l-368.664 -368.664zM483.884 1003.54l-121.143 -121.143c-201.578 -27.234 -330.9 -109.141 -330.9 -211.392c0 -30.649 12.268 -59.437 34.574 -85.506c-65.877 -71.97 -64.201 -184.608 5.439 -254.227l267.476 -267.455
c35.781 -35.801 82.95 -53.691 130.099 -53.691c47.169 0 94.338 17.89 130.139 53.691l412.03 412.03zM966.881 612.359c24.719 -24.719 76.939 -80.926 76.939 -80.926s43.059 -35.086 -3.19 -129.383c-32.714 -66.654 -82.97 -160.277 -82.97 -216.79
c0 -111.656 145.351 -89.329 178.678 -41.465c100.513 98.898 50.788 331.37 -38.275 431.617c-33.102 37.273 -76.346 74.301 -131.182 36.946z" />
    <glyph glyph-name="add2" unicode="&#xe145;" 
d="M512 896h64v-960h-64v960zM64 448h960v-64h-960v64z" />
    <glyph glyph-name="collapse" unicode="&#xe900;" 
d="M571.378 522.844c2.844 -6.933 8.533 -12.622 15.467 -15.467l10.844 -2.311h228.622c15.644 0 28.622 12.8 28.622 28.622s-12.8 28.622 -28.622 28.622h-159.644l236.978 236.978c11.2 11.2 11.2 29.333 0 40.356c-11.022 11.2 -29.333 11.2 -40.356 0
l-236.978 -236.978v159.644c0 15.822 -12.8 28.622 -28.622 28.622c-15.644 0 -28.622 -12.8 -28.622 -28.622v-228.622zM160.711 56.356l236.978 236.978v-159.644c0 -15.644 12.8 -28.622 28.622 -28.622s28.622 12.8 28.622 28.622v228.622l-2.133 10.844l-5.867 8.889
l-0.178 0.356l-0.178 0.178l-9.067 5.867l-11.022 2.311h-228.8c-15.822 0 -28.622 -12.8 -28.622 -28.622c0 -15.644 12.8 -28.622 28.622 -28.622h159.644l-236.978 -236.8c-11.2 -11.022 -11.2 -29.333 0 -40.356c11.2 -11.2 29.333 -11.2 40.356 0z" />
    <glyph glyph-name="expand" unicode="&#xe901;" 
d="M909.689 830.4c-2.844 6.933 -8.533 12.622 -15.467 15.467l-10.844 2.311h-228.444c-15.644 0 -28.622 -12.8 -28.622 -28.622s12.8 -28.622 28.622 -28.622h159.644l-236.978 -236.978c-11.2 -11.2 -11.2 -29.333 0 -40.356c11.022 -11.2 29.333 -11.2 40.356 0
l236.978 236.978v-159.644c0 -15.822 12.8 -28.622 28.622 -28.622c15.644 0 28.622 12.8 28.622 28.622v228.444zM406.044 382.578l-236.978 -236.978v159.644c0 15.644 -12.8 28.622 -28.622 28.622s-28.444 -12.978 -28.444 -28.622v-228.622l2.133 -10.844l5.867 -8.889
l0.178 -0.356l0.178 -0.178l9.067 -5.867l11.022 -2.311h228.622c15.822 0 28.622 12.8 28.622 28.622c0 15.644 -12.8 28.622 -28.622 28.622h-159.644l236.978 236.978c11.2 11.022 11.2 29.333 0 40.356c-11.022 10.844 -29.156 10.844 -40.356 -0.178z" />
    <glyph glyph-name="delete_close" unicode="&#xe902;" 
d="M903.111 125.689v0l-322.311 322.311l322.311 322.311c11.911 11.911 11.911 31.467 0 43.378l-25.422 25.422c-11.911 11.911 -31.467 11.911 -43.378 0l-322.311 -322.311l-322.133 322.311c-11.911 11.911 -31.467 11.911 -43.378 0l-25.422 -25.422
c-11.911 -11.911 -11.911 -31.467 0 -43.378l322.133 -322.133l-322.311 -322.311c-11.911 -11.911 -11.911 -31.467 0 -43.378l25.422 -25.422c11.911 -11.911 31.467 -11.911 43.378 0v0l322.311 322.133l322.311 -322.311c11.911 -11.911 31.467 -11.911 43.378 0
l25.422 25.422c11.911 11.911 11.911 31.467 1.13687e-13 43.378z" />
    <glyph glyph-name="chevron-left" unicode="&#xe903;" 
d="M637.542 741.581c22.835 -22.323 24.627 -53.402 0 -80.691l-191.846 -200.09l191.846 -200.09c24.627 -27.29 22.835 -58.419 0 -80.589c-22.784 -22.323 -61.286 -20.89 -82.688 0c-21.402 20.787 -230.502 240.384 -230.502 240.384
c-11.418 11.11 -17.152 25.702 -17.152 40.294s5.734 29.184 17.152 40.397c0 0 209.101 219.494 230.502 240.384c21.402 20.941 59.904 22.323 82.688 0v0.001z" />
    <glyph glyph-name="error" unicode="&#xe904;" 
d="M907.733 121.778c11.378 -26.667 -0.711 -57.422 -26.844 -68.978s-56.533 0.711 -67.911 27.378c-49.778 116.978 -167.467 192.533 -299.911 192.533c-135.467 0 -253.867 -75.556 -301.689 -192.356c-8.178 -20.089 -27.556 -32.356 -47.644 -32.356
c-6.578 0 -13.333 1.244 -19.733 3.911c-26.311 11.2 -38.756 41.778 -27.911 68.622c63.822 156.267 219.733 257.067 397.156 257.067c173.333 0 328.356 -100.267 394.489 -255.822v0zM154.133 739.556c0 59.911 47.822 108.444 106.844 108.444
c58.844 0 106.667 -48.533 106.667 -108.444s-47.822 -108.444 -106.667 -108.444c-59.022 0 -106.844 48.533 -106.844 108.444h2.84217e-14zM638.222 739.556c0 59.911 47.822 108.444 106.844 108.444s106.844 -48.533 106.844 -108.444
c0 -59.911 -47.822 -108.444 -106.844 -108.444s-106.844 48.533 -106.844 108.444v0z" />
    <glyph glyph-name="oops" unicode="&#xe905;" 
d="M340.978 848c54.578 0 99.022 -69.156 99.022 -154.311s-44.267 -154.311 -99.022 -154.311s-99.022 69.156 -99.022 154.311s44.267 154.311 99.022 154.311zM686.578 848c54.578 0 99.022 -69.156 99.022 -154.311s-44.267 -154.311 -99.022 -154.311
c-54.578 0 -99.022 69.156 -99.022 154.311s44.444 154.311 99.022 154.311zM728.711 270.933l-456.178 -131.2c-25.244 -7.289 -39.822 -33.6 -32.533 -58.844c6.044 -20.8 24.889 -34.489 45.511 -34.489c4.267 0 8.711 0.533 13.156 1.778l456.356 131.2
c25.244 7.289 39.822 33.6 32.533 58.844c-7.289 25.244 -33.6 40 -58.844 32.711v0h-0.001z" />
    <glyph glyph-name="parcially_correct" unicode="&#xe906;" 
d="M906.133 689.422l-92.267 92.267c-5.689 5.689 -14.044 7.289 -21.333 4.622c-2.667 -0.889 -5.156 -2.489 -7.111 -4.622v0l-170.311 -170.311l-145.067 145.067v0c-2.133 2.133 -4.622 3.556 -7.111 4.622c-7.111 2.667 -15.467 1.067 -21.333 -4.622l-92.267 -92.267
c-5.689 -5.689 -7.289 -14.044 -4.622 -21.333c0.889 -2.667 2.489 -5.156 4.622 -7.111v0l145.067 -145.067l-161.6 -161.778l-120.178 120.178l-100.622 -100.8l241.422 -241.6l262.222 262.4l144.356 -144.533v0c2.133 -2.133 4.622 -3.556 7.111 -4.622
c7.111 -2.667 15.467 -1.067 21.333 4.622l92.267 92.267c5.689 5.689 7.289 14.044 4.622 21.333c-0.889 2.667 -2.489 5.156 -4.622 7.111v0v0l-144.356 144.533l6.933 6.933l-0.711 0.711l163.378 163.378v0c2.133 2.133 3.556 4.622 4.622 7.111
c2.844 7.289 1.244 15.644 -4.444 21.511z" />
    <glyph glyph-name="correct" unicode="&#xe907;" 
d="M788.8 760.889l-374.933 -375.467l-174.933 175.289l-125.156 -125.156l300.089 -300.444l499.911 500.622z" />
    <glyph glyph-name="wrong" unicode="&#xe908;" 
d="M814.756 260.8v0l-187.022 187.2l187.2 187.2v0c1.956 1.956 3.556 4.444 4.444 6.933c2.489 6.933 1.067 14.933 -4.444 20.444l-88.356 88.356c-5.511 5.511 -13.511 6.933 -20.444 4.444c-2.489 -0.889 -4.8 -2.311 -6.933 -4.444v0l-187.2 -187.2l-187.2 187.022v0
c-1.956 1.956 -4.444 3.556 -6.933 4.444c-6.933 2.489 -14.933 1.067 -20.444 -4.444l-88.356 -88.356c-5.511 -5.511 -6.933 -13.511 -4.444 -20.444c0.889 -2.489 2.311 -4.8 4.444 -6.933v0l187.2 -187.2l-187.022 -187.022v0
c-1.956 -1.956 -3.556 -4.444 -4.444 -6.933c-2.489 -6.933 -1.067 -14.933 4.444 -20.444l88.356 -88.356c5.511 -5.511 13.511 -6.933 20.444 -4.444c2.489 0.889 4.8 2.311 6.933 4.444v0l187.022 187.2l187.2 -187.2v0c1.956 -1.956 4.444 -3.556 6.933 -4.444
c6.933 -2.489 14.933 -1.067 20.444 4.444l88.356 88.356c5.511 5.511 6.933 13.511 4.444 20.444c-1.067 2.667 -2.489 4.978 -4.622 6.933v5.68434e-14z" />
    <glyph glyph-name="add_close" unicode="&#xe909;" 
d="M512 848c-220.622 0 -400 -179.378 -400 -400s179.378 -400 400 -400c220.622 0 400 179.378 400 400c0 220.622 -179.378 400 -400 400zM512 94.222c-195.2 0 -353.778 158.756 -353.778 353.778c0 195.022 158.756 353.778 353.778 353.778
s353.778 -158.756 353.778 -353.778c0 -195.022 -158.578 -353.778 -353.778 -353.778zM587.556 556.267l-75.556 -75.556l-75.556 75.556c-9.067 9.067 -23.644 9.067 -32.711 0s-9.067 -23.644 0 -32.711l75.556 -75.556l-75.556 -75.556
c-9.067 -9.067 -9.067 -23.644 0 -32.711s23.644 -9.067 32.711 0l75.556 75.556l75.556 -75.556c9.067 -9.067 23.644 -9.067 32.711 0s9.067 23.644 0 32.711l-75.556 75.556l75.556 75.556c9.067 9.067 9.067 23.644 0 32.711s-23.644 8.889 -32.711 0z" />
    <glyph glyph-name="add" unicode="&#xe90a;" 
d="M810 384.667h-256v-256h-84v256h-256v84h256v256h84v-256h256v-84z" />
    <glyph glyph-name="video" unicode="&#xe90b;" horiz-adv-x="922" 
d="M547.401 364.8l-192 150.4c-6.08 4.8 -15.36 6.72 -22.4 3.2s-9.6 -11.2 -9.6 -19.2v-300.8c0 -8 5.76 -15.68 12.8 -19.2c2.88 -1.28 3.2 0 6.4 0c4.48 0 8.96 0.32 12.8 3.2l192 150.4c5.12 3.84 6.4 9.6 6.4 16s-1.28 12.16 -6.4 16zM896.201 908.8h-872
c-13.12 0 -24 -10.88 -24 -24v-872c0 -14.08 11.52 -25.6 25.6 -25.6h870.4c13.12 0 25.6 17.28 25.6 30.4v865.6c0 14.08 -11.52 25.6 -25.6 25.6zM605.961 705.6l66.88 136.64c2.24 4.8 7.36 8 12.8 8h111.04c4.8 0 9.28 -2.56 11.84 -6.72s2.88 -9.28 0.64 -13.76
l-66.88 -136.64c-2.24 -4.8 -7.36 -8 -12.8 -8h-110.72c-4.8 0 -9.28 2.56 -11.84 6.72c-2.88 4.16 -3.2 9.28 -0.96 13.76zM349.321 705.6l66.88 136.64c2.24 4.8 7.36 8 12.8 8h110.72c4.8 0 9.28 -2.56 11.84 -6.72s2.88 -9.28 0.64 -13.76l-66.88 -136.64
c-2.24 -4.8 -7.36 -8 -12.8 -8h-110.72c-4.8 0 -9.28 2.56 -11.84 6.72s-2.88 9.28 -0.64 13.76zM92.361 705.6l66.88 136.64c2.24 4.8 7.36 8 12.8 8h110.72c4.8 0 9.28 -2.56 11.84 -6.72s2.88 -9.28 0.64 -13.76l-66.56 -136.64c-2.24 -4.8 -7.36 -8 -12.8 -8h-110.72
c-4.8 0 -9.28 2.56 -11.84 6.72c-2.88 4.16 -2.88 9.28 -0.96 13.76zM848.201 83.2c0 -7.68 -5.12 -16 -12.8 -16h-748.8c-7.68 0 -12.8 5.12 -12.8 12.8v531.2c0 7.68 8.32 16 16 16h742.4c7.68 0 16 -8.32 16 -16z" />
    <glyph glyph-name="audio" unicode="&#xe90c;" horiz-adv-x="922" 
d="M512 242.859c85.333 0 154.624 69.973 154.624 155.989v350.549c0 86.016 -69.291 155.989 -154.624 155.989s-154.624 -69.973 -154.624 -155.989v-350.549c0 -86.016 69.291 -155.989 154.624 -155.989zM760.491 492.032h-30.72
c-9.899 0 -17.749 -8.192 -17.749 -18.091v-63.488c0 -111.275 -89.429 -201.728 -199.68 -201.728s-199.68 90.453 -199.68 201.728v63.488c0 9.899 -7.851 18.091 -17.749 18.091h-30.72c-9.899 0 -17.749 -8.192 -17.749 -18.091v-63.488
c0 -132.779 102.4 -250.197 232.789 -266.581v-45.056h-137.899c-9.899 0 -17.749 -8.192 -17.749 -18.091v-31.061c0 -9.899 7.851 -18.091 17.749 -18.091h341.333c9.899 0 17.749 8.192 17.749 18.091v31.061c0 9.899 -8.192 18.091 -17.749 18.091h-137.557v45.056
c130.731 16.384 233.131 133.803 233.131 266.581v63.488c0 10.24 -7.851 18.091 -17.749 18.091h-0.001z" />
    <glyph glyph-name="image" unicode="&#xe90d;" horiz-adv-x="922" 
d="M859.477 823.467h-53.931v-690.176c0 -10.923 -8.875 -19.797 -19.797 -19.797h-676.523v-53.931c0 -10.923 8.875 -27.989 19.797 -27.989h738.645c10.923 0 19.797 8.875 19.797 19.797v752.299c0 10.923 -17.067 19.797 -27.989 19.797h0.001zM764.587 174.251
v711.339c0 10.923 -5.12 19.797 -16.043 19.797h-701.44c-10.923 0 -19.797 -8.875 -19.797 -19.797v-711.68c0 -10.923 8.875 -19.797 19.797 -19.797h697.685c10.923 0.341 19.797 9.216 19.797 20.139zM566.613 759.637c41.643 0 75.435 -33.792 75.435 -75.435
s-33.792 -75.435 -75.435 -75.435c-41.643 0 -75.435 33.792 -75.435 75.435c0.341 41.984 33.792 75.435 75.435 75.435zM91.477 195.413c4.096 84.992 48.469 264.192 113.323 325.291c58.027 54.272 107.52 24.576 146.091 -30.72
c35.84 -51.2 66.901 -96.597 93.184 -125.269c43.349 -43.349 80.213 4.779 125.269 26.283c65.877 31.403 120.491 -145.749 134.485 -195.584h-612.352z" />
    <glyph glyph-name="pause" unicode="&#xe90e;" 
d="M284.444 163.556h170.667v568.889h-170.667zM568.889 732.444v-568.889h170.667v568.889h-170.667z" />
    <glyph glyph-name="play" unicode="&#xe90f;" 
d="M200.889 836.978l622.222 -388.978l-622.222 -388.8v777.778z" />
    <glyph glyph-name="settings2" unicode="&#xe910;" 
d="M512 303.644c39.644 0 73.6 14.044 101.867 42.311s42.311 62.222 42.311 102.044s-14.044 73.778 -42.311 102.044s-62.222 42.311 -101.867 42.311s-73.6 -14.044 -101.867 -42.311s-42.311 -62.222 -42.311 -102.044s14.044 -73.778 42.311 -102.044
s62.222 -42.311 101.867 -42.311zM817.6 407.644l86.578 -67.378c8.889 -6.4 10.311 -15.467 3.911 -27.022l-82.667 -142.4c-5.156 -9.067 -13.511 -11.556 -25.067 -7.644l-101.867 40.356c-26.844 -19.2 -49.956 -32.711 -69.156 -40.356l-15.467 -107.733
c-2.489 -11.556 -8.889 -17.244 -19.2 -17.244h-165.333c-10.311 0 -16.711 5.689 -19.2 17.244l-15.467 107.911c-24.356 10.311 -47.467 23.644 -69.156 40.356l-101.867 -40.356c-11.556 -3.911 -19.911 -1.244 -25.067 7.644l-82.667 142.4
c-6.4 11.556 -5.156 20.444 3.911 27.022l86.578 67.378c-1.244 9.067 -1.956 22.4 -1.956 40.356s0.711 31.467 1.956 40.356l-86.578 67.378c-8.889 6.4 -10.311 15.467 -3.911 27.022l82.667 142.4c5.156 9.067 13.511 11.556 25.067 7.644l101.867 -40.356
c26.844 19.2 49.956 32.711 69.156 40.356l15.467 107.733c2.489 11.556 8.889 17.244 19.2 17.244h165.333c10.311 0 16.711 -5.689 19.2 -17.244l15.467 -107.733c24.356 -10.311 47.467 -23.644 69.156 -40.356l101.867 40.356c11.556 3.911 19.911 1.244 25.067 -7.644
l82.667 -142.4c6.4 -11.556 5.156 -20.444 -3.911 -27.022l-86.578 -67.378c1.244 -9.067 1.956 -22.4 1.956 -40.356s-0.711 -31.644 -1.956 -40.533z" />
    <glyph glyph-name="trash" unicode="&#xe911;" 
d="M230.044 90.133c0 -28.267 22.933 -51.022 51.2 -51.022h461.511c28.444 0 51.378 22.933 51.378 51.022v525.867h-564.089zM636.8 565.333h79.644v-425.244c0 -21.867 -17.778 -39.644 -39.644 -39.644c-22.044 0 -39.822 17.778 -39.822 39.644zM472.356 565.333
h79.467v-425.244c0 -21.867 -17.778 -39.644 -39.822 -39.644s-39.822 17.778 -39.822 39.644c0.178 0 0.178 425.244 0.178 425.244h-0.001zM306.489 565.333h79.467v-425.244c0 -21.867 -17.778 -39.644 -39.644 -39.644s-39.644 17.778 -39.644 39.644l-0.178 425.244
h-0.001zM793.956 802.311h-201.244v29.156s-0.889 25.6 -26.489 25.6h-109.867c-25.6 0 -24.711 -25.6 -24.711 -25.6v-29.156h-201.6c-28.267 0 -51.2 -22.933 -51.2 -51.2v-84.089h666.489v84.089c-0.178 28.267 -23.111 51.2 -51.378 51.2z" />
    <glyph glyph-name="registered" unicode="&#xe912;" 
d="M595.429 558.286c0 33.524 -11.4287 56.5717 -34.286 69.143c-12.5713 6.85733 -34.857 10.286 -66.857 10.286h-70.286v-160.571h92.571c25.1427 0 44.5713 7.04767 58.286 21.143c13.7147 14.0953 20.5717 34.0953 20.571 60zM625.143 395.429l117.143 -213.143
c3.04733 -6.476 2.857 -12.3807 -0.571 -17.714c-3.04733 -6.09533 -8.19033 -9.143 -15.429 -9.143h-86.857c-7.61933 0 -12.9527 3.238 -16 9.714l-110.857 208.571h-88.571v-200c0 -5.33333 -1.71433 -9.71433 -5.143 -13.143s-7.80967 -5.143 -13.143 -5.143h-76.571
c-5.33333 0 -9.71433 1.71433 -13.143 5.143s-5.143 7.80967 -5.143 13.143v548.571c0 5.33333 1.71433 9.71433 5.143 13.143s7.80967 5.143 13.143 5.143h168c48.762 0 84.9523 -4.57133 108.571 -13.714c32.3807 -11.8093 57.9043 -32.5713 76.571 -62.286
s28 -64.0003 28 -102.857c0 -35.0473 -8.09533 -66.571 -24.286 -94.571c-16.1907 -28 -38.1907 -48.857 -66 -62.571c2.286 -3.80933 4.00033 -6.857 5.143 -9.143zM512 868.571c-57.1427 0 -111.619 -11.143 -163.429 -33.429
c-51.81 -22.286 -96.4767 -52.1907 -134 -89.714s-67.428 -82.19 -89.714 -134s-33.429 -106.286 -33.429 -163.429c0 -57.1427 11.143 -111.619 33.429 -163.429c22.286 -51.81 52.1907 -96.4767 89.714 -134s82.19 -67.428 134 -89.714s106.286 -33.429 163.429 -33.429
c57.1427 0 111.619 11.143 163.429 33.429c51.81 22.286 96.4767 52.1907 134 89.714s67.428 82.19 89.714 134s33.429 106.286 33.429 163.429c0 57.1427 -11.143 111.619 -33.429 163.429c-22.286 51.81 -52.1907 96.4767 -89.714 134
c-37.5233 37.5233 -82.19 67.428 -134 89.714c-51.81 22.286 -106.286 33.429 -163.429 33.429zM1024 448c0 -69.3333 -13.5237 -135.619 -40.571 -198.857c-27.0473 -63.238 -63.4283 -117.714 -109.143 -163.429c-45.7147 -45.7147 -100.191 -82.0957 -163.429 -109.143
c-63.238 -27.0473 -129.524 -40.571 -198.857 -40.571c-69.3333 0 -135.619 13.5237 -198.857 40.571c-63.238 27.0473 -117.714 63.4283 -163.429 109.143c-45.7147 45.7147 -82.0957 100.191 -109.143 163.429c-27.0473 63.238 -40.571 129.524 -40.571 198.857
c0 69.3333 13.5237 135.619 40.571 198.857c27.0473 63.238 63.4283 117.714 109.143 163.429c45.7147 45.7147 100.191 82.0957 163.429 109.143c63.238 27.0473 129.524 40.571 198.857 40.571c69.3333 0 135.619 -13.5237 198.857 -40.571
s117.714 -63.4283 163.429 -109.143c45.7147 -45.7147 82.0957 -100.191 109.143 -163.429c27.0473 -63.238 40.571 -129.524 40.571 -198.857z" />
    <glyph glyph-name="move" unicode="&#xe913;" 
d="M661.097 138.844c-7.181 -0.236 -13.391 -2.954 -18.603 -8.179l-104.514 -104.514v309.642c0 7.838 -2.507 14.257 -7.522 19.259c-5.002 5.002 -11.422 7.509 -19.272 7.509c-6.984 -0.013 -13.063 -2.613 -18.301 -7.838c-5.212 -5.212 -7.824 -11.33 -7.824 -18.288
v-309.629l-103.87 103.87c-5.212 5.225 -11.54 7.824 -18.944 7.838c-7.391 0 -13.719 -2.613 -18.931 -7.838c-4.805 -4.805 -7.181 -10.91 -7.181 -18.301s2.613 -13.706 7.838 -18.931l148.939 -148.939l8.481 -5.881l9.807 -1.956l0.656 -0.656l9.807 1.956l8.494 5.881
l149.596 149.596c5.225 5.225 7.824 11.54 7.824 18.944c0 7.391 -2.613 13.719 -7.824 18.944c-5.251 5.212 -11.461 7.693 -18.655 7.509zM362.247 757.786c7.404 -0.013 13.732 2.613 18.944 7.838l104.527 104.527v-309.642c-0.42 -7.404 1.956 -13.719 7.168 -18.944
c5.225 -5.225 11.553 -7.627 18.957 -7.181c7.391 -0.446 13.706 1.956 18.931 7.181s7.614 11.527 7.181 18.931v309.655l104.514 -104.514c5.225 -5.225 11.54 -7.864 18.944 -7.851c7.404 -0.013 13.719 2.626 18.931 7.838c4.792 4.792 7.181 10.883 7.181 18.301
c0 7.391 -2.599 13.719 -7.824 18.944l-148.913 148.926l-8.494 5.881c-3.492 1.733 -7.089 2.494 -10.778 2.284c-3.702 -0.223 -7.089 -0.998 -10.135 -2.284l-8.481 -5.881l-148.939 -148.939c-5.225 -5.225 -7.838 -11.553 -7.838 -18.931
c0 -7.417 2.402 -13.509 7.181 -18.301c5.225 -5.225 11.553 -7.851 18.944 -7.838zM89.849 422.019h309.642c7.404 -0.42 13.706 1.956 18.931 7.168c5.225 5.225 7.627 11.54 7.194 18.957c0.433 7.391 -1.956 13.706 -7.194 18.931
c-5.225 5.225 -11.527 7.614 -18.931 7.181h-309.642l104.514 104.527c5.225 5.212 7.864 11.527 7.851 18.931c0.013 7.404 -2.626 13.719 -7.838 18.931c-4.792 4.792 -10.883 7.181 -18.301 7.181c-7.391 0 -13.706 -2.599 -18.944 -7.824l-148.926 -148.913
l-5.881 -8.494c-1.733 -3.492 -2.494 -7.063 -2.284 -10.778c0.223 -3.689 0.998 -7.089 2.284 -10.135l5.881 -8.481l148.939 -148.939c5.225 -5.225 11.553 -7.838 18.931 -7.838c7.417 0 13.509 2.402 18.301 7.181c5.225 5.212 7.851 11.54 7.838 18.931
c0.013 7.404 -2.613 13.732 -7.838 18.957l-104.527 104.527zM1022.04 457.938l-5.881 8.494l-149.596 149.596c-5.225 5.225 -11.527 7.824 -18.931 7.824c-7.391 0 -13.732 -2.613 -18.944 -7.824c-5.238 -5.225 -7.719 -11.448 -7.522 -18.629
c0.236 -7.181 2.941 -13.391 8.166 -18.603l104.514 -104.527h-309.642c-7.838 0 -14.27 -2.507 -19.272 -7.522c-5.002 -5.002 -7.522 -11.422 -7.522 -19.272c0.026 -6.984 2.613 -13.063 7.851 -18.301c5.199 -5.212 11.317 -7.824 18.288 -7.824h309.629
l-103.87 -103.87c-5.225 -5.225 -7.824 -11.553 -7.824 -18.957c0 -7.391 2.613 -13.719 7.824 -18.931c4.805 -4.805 10.91 -7.181 18.301 -7.181s13.693 2.613 18.931 7.838l148.939 148.939l5.881 8.481l1.956 9.807l0.656 0.656l-1.93 9.807z" />
    <glyph glyph-name="can" unicode="&#xe914;" 
d="M763.167 -64h-459.5c-12.725 0 -23.678 9.001 -26.116 21.505l-128.677 661.473c-2.794 14.411 6.606 28.377 21.017 31.172c14.677 2.97 28.423 -6.563 31.217 -21.062l124.508 -639.923h414.183l82.785 638.282c1.907 14.587 15.208 25.186 29.797 22.967
c14.587 -1.862 24.874 -15.253 22.967 -29.797l-85.798 -661.427c-1.731 -13.258 -12.994 -23.188 -26.385 -23.188zM907.141 694.978h-790.325c-14.72 0 -26.603 11.928 -26.603 26.603s11.883 26.603 26.603 26.603h790.37c14.72 0 26.603 -11.883 26.603 -26.603
c-0.045 -14.677 -11.928 -26.603 -26.648 -26.603zM797.886 813.543h-571.815c-14.72 0 -26.603 11.928 -26.603 26.603s11.928 26.603 26.603 26.603h571.815c14.677 0 26.603 -11.928 26.603 -26.603s-11.883 -26.603 -26.603 -26.603zM385.296 78.464
c-14.677 0 -26.603 11.928 -26.603 26.603v472.36c0 14.677 11.928 26.603 26.603 26.603c14.72 0 26.603 -11.928 26.603 -26.603v-472.36c0.003 -14.675 -11.881 -26.603 -26.603 -26.603zM511.977 78.464c-14.72 0 -26.603 11.928 -26.603 26.603v472.36
c0 14.677 11.928 26.603 26.603 26.603c14.72 0 26.603 -11.928 26.603 -26.603v-472.36c0.003 -14.675 -11.881 -26.603 -26.603 -26.603zM638.659 78.464c-14.72 0 -26.603 11.928 -26.603 26.603v472.36c0 14.677 11.928 26.603 26.603 26.603
c14.677 0 26.603 -11.928 26.603 -26.603v-472.36c0.003 -14.675 -11.926 -26.603 -26.603 -26.603zM579.419 915.659h-134.883c-12.237 0 -22.171 9.933 -22.171 22.171s9.933 22.171 22.171 22.171h134.883c12.237 0 22.171 -9.933 22.171 -22.171
s-9.931 -22.171 -22.171 -22.171z" />
    <glyph glyph-name="settings" unicode="&#xe915;" 
d="M834.046 258.564c-8.134 8.141 -21.335 8.141 -29.465 0c-8.141 -8.137 -8.141 -21.331 0 -29.465l40.506 -40.509c9.7 -9.7 15.045 -22.599 15.045 -36.317c0 -13.722 -5.345 -26.621 -15.045 -36.324l-1.031 -1.031c-9.704 -9.7 -22.602 -15.042 -36.324 -15.042
c-13.718 0 -26.617 5.342 -36.321 15.045l-40.506 40.502c-7.019 7.016 -18.011 8.113 -26.28 2.608c-37.804 -25.166 -79.449 -42.433 -123.785 -51.321c-9.735 -1.952 -16.74 -10.499 -16.74 -20.432v-57.232c0 -28.326 -23.044 -51.369 -51.366 -51.369h-1.459
c-28.323 0 -51.366 23.044 -51.366 51.369v57.232c0 9.929 -7.005 18.48 -16.743 20.432c-44.337 8.891 -85.982 26.155 -123.785 51.321c-8.266 5.501 -19.261 4.411 -26.284 -2.608l-40.506 -40.506c-9.7 -9.7 -22.602 -15.042 -36.321 -15.042
c-13.722 0 -26.621 5.342 -36.321 15.042l-1.031 1.031c-9.7 9.704 -15.045 22.602 -15.045 36.324c0 13.718 5.345 26.617 15.045 36.321l40.506 40.506c7.019 7.019 8.113 18.018 2.612 26.28c-25.169 37.804 -42.437 79.452 -51.328 123.785
c-1.952 9.735 -10.502 16.74 -20.432 16.74h-57.228c-28.323 0 -51.366 23.044 -51.366 51.363v1.462c0 28.323 23.044 51.366 51.366 51.366h57.232c9.929 0 18.48 7.005 20.432 16.74c8.894 44.34 26.162 85.985 51.328 123.785c5.501 8.266 4.411 19.265 -2.612 26.284
l-40.509 40.502c-9.7 9.704 -15.045 22.602 -15.045 36.324s5.345 26.621 15.045 36.324l1.031 1.031c9.7 9.7 22.599 15.045 36.321 15.045c13.718 0 26.621 -5.345 36.321 -15.049l40.506 -40.502c8.141 -8.134 21.335 -8.137 29.469 0.003
c8.137 8.137 8.137 21.331 0 29.469l-40.502 40.499c-17.573 17.577 -40.94 27.256 -65.789 27.256c-24.853 0 -48.219 -9.679 -65.789 -27.256l-1.031 -1.031c-17.573 -17.573 -27.253 -40.937 -27.253 -65.789s9.679 -48.219 27.253 -65.793l28.701 -28.698
c-20.272 -33.518 -35.213 -69.544 -44.566 -107.466h-40.541c-51.303 0 -93.042 -41.739 -93.042 -93.042v-1.462c0 -51.3 41.739 -93.039 93.042 -93.039h40.537c9.349 -37.922 24.287 -73.941 44.566 -107.466l-28.698 -28.701
c-17.577 -17.573 -27.253 -40.937 -27.253 -65.789s9.679 -48.219 27.253 -65.789l1.031 -1.031c17.573 -17.577 40.937 -27.253 65.789 -27.253s48.216 9.676 65.789 27.249l28.701 28.701c33.525 -20.276 69.544 -35.213 107.469 -44.562v-40.537
c0 -51.303 41.739 -93.046 93.042 -93.046h1.459c51.303 0 93.042 41.742 93.042 93.046v40.537c37.925 9.349 73.944 24.287 107.466 44.562l28.701 -28.698c17.573 -17.577 40.937 -27.253 65.789 -27.253s48.219 9.676 65.789 27.253l1.031 1.031
c17.577 17.573 27.256 40.937 27.256 65.789c0 24.852 -9.679 48.219 -27.256 65.786l-40.506 40.502zM930.954 541.772h-40.541c-9.349 37.925 -24.29 73.948 -44.562 107.466l28.701 28.701c36.279 36.276 36.279 95.303 0 131.582l-1.031 1.031
c-17.573 17.577 -40.937 27.256 -65.789 27.256s-48.219 -9.679 -65.786 -27.253l-28.705 -28.705c-33.522 20.276 -69.544 35.213 -107.466 44.562v40.541c-0.003 51.303 -41.739 93.046 -93.046 93.046h-1.459c-51.303 0 -93.042 -41.742 -93.042 -93.046v-57.232
c0 -11.506 9.332 -20.838 20.838 -20.838c11.51 0 20.838 9.332 20.838 20.838v57.232c0 28.326 23.044 51.369 51.366 51.369h1.459c28.323 0 51.366 -23.044 51.366 -51.369v-57.232c0 -9.926 7.009 -18.476 16.74 -20.432c44.337 -8.894 85.982 -26.159 123.785 -51.324
c8.259 -5.494 19.258 -4.411 26.28 2.612l40.509 40.506c9.7 9.7 22.599 15.045 36.317 15.045c13.722 0 26.621 -5.345 36.324 -15.045l1.031 -1.031c9.7 -9.704 15.045 -22.602 15.045 -36.324s-5.345 -26.621 -15.045 -36.321l-40.506 -40.502
c-7.019 -7.019 -8.116 -18.018 -2.612 -26.284c25.162 -37.797 42.433 -79.442 51.324 -123.785c1.955 -9.735 10.502 -16.74 20.432 -16.74h57.232c28.323 0 51.366 -23.044 51.366 -51.366v-1.462c0 -28.319 -23.044 -51.363 -51.366 -51.363h-57.232
c-11.506 0 -20.838 -9.332 -20.838 -20.838s9.332 -20.838 20.838 -20.838h57.232c51.303 0 93.042 41.739 93.042 93.039v1.462c0 51.307 -41.739 93.042 -93.042 93.042h0.003zM512 369.503c-18.202 0 -35.279 6.043 -49.386 17.48
c-8.936 7.238 -22.061 5.873 -29.309 -3.067c-7.245 -8.94 -5.873 -22.064 3.067 -29.309c21.304 -17.271 48.164 -26.78 75.629 -26.78c66.262 0 120.174 53.908 120.174 120.177c0 66.262 -53.908 120.174 -120.174 120.174s-120.174 -53.908 -120.174 -120.174
c0 -11.506 9.332 -20.838 20.838 -20.838s20.838 9.332 20.838 20.838c0 43.284 35.213 78.497 78.497 78.497c43.284 0 78.497 -35.213 78.497 -78.497s-35.213 -78.501 -78.497 -78.501z" />
    <glyph glyph-name="link" unicode="&#xe916;" 
d="M1006.56 942.561c11.605 -13.591 17.439 -29.106 17.439 -46.545s-5.834 -33.016 -17.439 -46.545l-130.886 -128.031c40.712 -62.061 57.654 -131.382 50.89 -208.027c-6.827 -76.645 -37.423 -142.057 -91.664 -196.36l-192.016 -192.016
c-31.092 -31.03 -66.467 -54.303 -106.186 -69.818c-39.843 -15.515 -79.996 -23.273 -120.708 -23.273c-31.092 0 -61.626 4.344 -91.664 13.095c-30.099 8.751 -58.709 21.845 -85.83 39.284l-130.886 -130.886c-5.834 -5.834 -12.66 -10.178 -20.356 -13.095
c-7.82 -2.917 -15.577 -4.344 -23.273 -4.344c-7.82 0 -15.577 1.427 -23.273 4.344c-7.82 2.917 -15.577 7.261 -23.273 13.095c-11.605 13.591 -17.439 29.106 -17.439 46.545s5.834 32.954 17.439 46.545l130.886 128.031c-40.712 62.061 -57.778 131.382 -50.89 208.027
c6.765 76.583 37.298 141.995 91.664 196.298l192.016 192.016c30.968 31.03 66.343 54.303 106.186 69.818c39.719 15.515 79.996 23.273 120.708 23.273c30.968 0 61.502 -4.344 91.664 -13.095c29.975 -8.751 58.585 -21.845 85.83 -39.284l128.031 130.886
c13.467 11.667 29.044 17.501 46.483 17.501s32.892 -5.834 46.545 -17.439zM800.023 544.008c0 15.515 -1.986 30.037 -5.834 43.629c-3.91 13.529 -8.751 26.19 -14.522 37.795l-96.008 -96.008c-5.834 -5.834 -12.66 -10.674 -20.356 -14.522
c-7.82 -3.91 -16.57 -5.834 -26.19 -5.834c-7.82 0 -15.577 1.924 -23.273 5.834c-7.82 3.91 -14.584 8.751 -20.356 14.522c-13.653 11.667 -20.418 26.19 -20.418 43.691s6.703 32.954 20.356 46.545l96.008 96.008c-11.667 7.758 -24.7 13.095 -39.284 16.012
s-28.672 4.344 -42.201 4.344c-25.197 0 -49.4 -4.903 -72.673 -14.584s-44.684 -23.273 -63.984 -40.712l-192.016 -192.016c-17.439 -19.363 -31.092 -40.712 -40.712 -63.984c-9.744 -23.273 -14.584 -47.538 -14.584 -72.735c0 -15.515 1.427 -30.037 4.344 -43.629
s8.192 -26.19 16.012 -37.795l93.091 96.008c13.529 11.667 29.106 17.439 46.545 17.439s32.892 -5.834 46.545 -17.439c11.667 -13.591 17.439 -29.106 17.439 -46.545s-5.834 -32.954 -17.439 -46.545l-96.008 -93.091c11.667 -7.758 24.7 -13.095 39.284 -16.012
s28.548 -4.344 42.201 -4.344c25.135 0 49.462 4.841 72.735 14.522s44.56 23.273 63.984 40.712l192.016 192.016c17.439 19.363 30.968 40.712 40.712 63.984c9.681 23.273 14.584 47.538 14.584 72.735z" />
    <glyph glyph-name="conversation-speech-bubbles" unicode="&#xe917;" 
d="M512 891.611c-282.77 0 -512 -180.151 -512 -402.286c0 -105.179 51.419 -201.07 135.607 -272.75c-3.218 -69.851 -17.701 -163.767 -68.901 -212.187c97.792 0 197.925 64.366 257.317 110.738c58.222 -18.139 121.637 -28.087 187.977 -28.087
c282.77 0 512 180.151 512 402.286c0 222.135 -229.23 402.286 -512 402.286z" />
    <glyph glyph-name="smile" unicode="&#xe918;" 
d="M874.104 810.104c-96.735 96.735 -225.28 149.896 -362.104 149.896s-265.369 -53.161 -362.104 -149.896c-96.735 -96.735 -149.896 -225.28 -149.896 -362.104s53.161 -265.369 149.896 -362.104c96.735 -96.735 225.28 -149.896 362.104 -149.896
s265.369 53.161 362.104 149.896c96.735 96.735 149.896 225.28 149.896 362.104s-53.161 265.369 -149.896 362.104zM512 -26.962c-261.883 0 -474.962 213.079 -474.962 474.962c0 261.883 213.079 474.962 474.962 474.962c261.883 0 474.962 -213.079 474.962 -474.962
s-213.079 -474.962 -474.962 -474.962zM721.811 328.606c-7.408 5.011 -17.648 5.229 -22.659 -2.179c-42.267 -62.311 -112.204 -97.389 -187.152 -97.389s-144.885 35.077 -187.152 97.389c-5.011 7.408 -15.251 7.19 -22.659 2.179s-9.369 -15.251 -4.357 -22.659
c48.15 -71.462 128.327 -113.947 214.169 -113.947s165.801 42.703 214.169 113.947c5.011 7.408 3.05 17.43 -4.357 22.659h-0.002zM712.66 597.243c-45.1 0 -81.702 -36.603 -81.702 -81.702c0 -8.933 9.586 -16.34 18.519 -16.34s18.519 7.408 18.519 16.34
c0 27.016 17.648 44.664 44.664 44.664s44.664 -17.648 44.664 -44.664c0 -8.933 9.586 -16.34 18.519 -16.34s18.519 7.408 18.519 16.34c0 45.1 -36.603 81.702 -81.702 81.702zM356.003 515.54c0 -8.933 9.586 -16.34 18.519 -16.34s18.519 7.408 18.519 16.34
c0 45.1 -36.603 81.702 -81.702 81.702s-81.702 -36.603 -81.702 -81.702c0 -8.933 9.586 -16.34 18.519 -16.34s18.519 7.408 18.519 16.34c0 27.016 17.648 44.664 44.664 44.664s44.664 -17.43 44.664 -44.664z" />
    <glyph glyph-name="chevron-right" unicode="&#xe919;" 
d="M469.146 741.581c21.402 -20.89 230.502 -240.384 230.502 -240.384c11.418 -11.213 17.152 -25.805 17.152 -40.397s-5.734 -29.184 -17.152 -40.294c0 0 -209.101 -219.597 -230.502 -240.384c-21.402 -20.89 -59.904 -22.323 -82.688 0
c-22.835 22.221 -24.627 53.299 0 80.589l191.846 200.09l-191.846 200.09c-24.627 27.29 -22.835 58.419 0 80.691c22.784 22.323 61.286 20.941 82.688 0z" />
    <glyph glyph-name="Open_Iconfont" unicode="&#xe91a;" 
d="M1024 960l-1024 -1024h206.098l817.902 817.902v206.098zM347.302 -64h206.1l470.597 470.6v206.098zM712.105 -64h206.098l105.797 105.797v206.1z" />
    <glyph glyph-name="TG_Settings" unicode="&#xe91b;" 
d="M67.229 590.022c5.382 -18.454 12.851 -36.253 22.298 -52.947l-26.912 -33.942c-8.79 -11.094 -7.802 -26.912 2.086 -36.909l46.358 -46.358c9.997 -9.994 25.814 -10.87 36.909 -2.083l33.725 26.698c17.357 -10 35.811 -17.802 55.037 -23.293l5.053 -43.389
c1.648 -14.064 13.51 -24.605 27.571 -24.605h65.581c14.061 0 25.926 10.544 27.571 24.605l4.835 41.853c20.653 5.382 40.426 13.402 58.989 23.837l32.624 -25.814c11.094 -8.787 26.915 -7.802 36.912 2.086l44.934 47.44c10 9.997 12.294 24.73 3.507 35.824
l-25.907 34.576c10.544 18.237 20.109 34.077 25.6 54.4l38.4 6.4c14.067 1.648 25.6 11.539 25.6 25.6v67.2c0 14.061 -14.736 27.152 -28.8 28.8l-38.4 3.2c-5.27 20.102 -10.224 39.069 -20.333 57.085l23.533 29.315c8.787 11.094 6.688 28.403 -3.2 38.4l-44.8 44.8
c-10 9.997 -27.306 11.987 -38.4 3.2l-28.8 -22.4c-18.893 11.094 -39.6 19.888 -60.8 25.6l-3.2 35.2c-1.648 14.061 -14.739 25.6 -28.8 25.6h-60.8c-14.061 0 -29.136 -10.544 -30.784 -24.605l-4.394 -37.677c-21.75 -5.824 -42.512 -14.611 -61.846 -26.144
l-30.208 23.949c-11.094 8.784 -25.971 7.162 -35.968 -2.723l-48 -44.8c-9.997 -9.997 -10.173 -26.739 -1.386 -37.837l25.267 -31.965c-10.106 -18.237 -17.795 -37.68 -22.848 -57.891l-40.429 -4.614c-14.061 -1.648 -24.605 -13.51 -24.605 -27.571v-65.581
c0 -14.061 10.544 -25.926 24.605 -27.574l42.624 -4.944zM304.835 767.43c59.757 0 108.422 -48.666 108.422 -108.422s-48.666 -108.422 -108.422 -108.422s-108.426 48.666 -108.426 108.422c0 59.76 48.666 108.422 108.426 108.422zM953.168 573.875l-34.602 29.219
c-10.653 9.008 -26.365 8.57 -36.467 -0.989l-19.117 -17.904c-16.144 7.798 -33.28 13.293 -50.97 16.477l-5.382 26.365c-2.742 13.622 -15.379 23.069 -29.219 21.971l-45.149 -3.843c-13.843 -1.21 -24.72 -12.525 -25.155 -26.474l-0.874 -26.803
c-17.363 -6.262 -33.728 -14.829 -48.669 -25.597l-22.851 15.158c-11.645 7.69 -27.133 5.491 -36.138 -5.162l-29.222 -34.822c-9.008 -10.656 -8.57 -26.365 0.989 -36.47l19.994 -21.309c-6.922 -15.6 -11.866 -31.968 -14.723 -48.778l-28.56 -5.818
c-13.622 -2.742 -23.069 -15.382 -21.971 -29.222l3.846 -45.146c1.21 -13.843 12.522 -24.72 26.47 -25.155l30.87 -0.989c5.603 -14.72 12.963 -28.675 21.859 -41.744l-17.245 -26.038c-7.69 -11.645 -5.494 -27.133 5.155 -36.138l34.605 -29.222
c10.656 -9.005 26.362 -8.566 36.467 0.992l22.63 21.2c14.832 -6.918 30.426 -12.08 46.467 -15.158l6.259 -30.979c2.746 -13.619 15.379 -23.069 29.222 -21.968l45.146 3.843c13.84 1.21 24.717 12.522 25.155 26.474l0.989 30.32
c16.477 5.821 32.074 13.731 46.467 23.507l24.938 -16.474c11.645 -7.69 27.133 -5.494 36.141 5.162l29.222 34.602c9.005 10.656 8.57 26.365 -0.989 36.47l-20.106 21.309c7.363 15.6 12.742 32.074 15.818 48.995l27.462 5.603
c13.622 2.746 23.069 15.379 21.968 29.222l-3.843 45.149c-1.206 13.84 -12.522 24.714 -26.474 25.155l-27.568 0.877c-5.715 16.038 -13.405 31.197 -22.963 45.261l15.05 22.627c7.923 11.635 5.722 27.235 -4.934 36.243zM783.011 312.87
c-48.771 -4.176 -91.837 32.186 -95.901 80.96c-4.176 48.774 32.189 91.834 80.96 95.901c48.771 4.173 91.834 -32.189 95.901 -80.96c4.176 -48.778 -32.186 -91.837 -80.96 -95.901zM225.194 191.376c-13.84 -1.424 -24.496 -13.069 -24.605 -27.021l-0.33 -27.792
c-0.221 -13.952 10.106 -25.814 23.946 -27.574l20.432 -2.634c3.405 -12.416 8.24 -24.278 14.499 -35.485l-13.184 -16.256c-8.787 -10.874 -8.128 -26.474 1.648 -36.467l19.443 -19.888c9.776 -9.994 25.376 -11.094 36.47 -2.525l16.368 12.634
c11.533 -6.813 23.728 -12.198 36.47 -15.93l2.198 -21.094c1.427 -13.84 13.072 -24.493 27.024 -24.605l27.792 -0.33c13.949 -0.218 25.814 10.102 27.574 23.946l2.528 19.994c13.84 3.405 27.024 8.57 39.546 15.379l15.379 -12.416
c10.874 -8.787 26.47 -8.125 36.47 1.651l19.882 19.443c9.997 9.776 11.094 25.376 2.528 36.467l-11.757 15.267c7.254 12.086 12.854 24.938 16.698 38.451l18.237 1.869c13.84 1.424 24.493 13.072 24.605 27.021l0.326 27.795
c0.224 13.949 -10.099 25.814 -23.942 27.571l-17.798 2.307c-3.402 13.402 -8.458 26.365 -15.046 38.451l11.094 13.619c8.787 10.874 8.131 26.474 -1.648 36.47l-19.44 19.885c-9.782 9.997 -25.379 11.094 -36.474 2.525l-13.293 -10.214
c-12.522 7.578 -25.923 13.402 -39.984 17.357l-1.757 17.248c-1.427 13.843 -13.072 24.496 -27.024 24.605l-27.795 0.33c-13.949 0.221 -25.814 -10.102 -27.571 -23.946l-2.198 -17.136c-14.499 -3.731 -28.451 -9.446 -41.414 -16.915l-13.731 11.203
c-10.874 8.787 -26.474 8.128 -36.47 -1.648l-19.994 -19.552c-9.997 -9.776 -11.094 -25.376 -2.525 -36.467l11.754 -15.162c-6.81 -12.08 -12.195 -24.934 -15.709 -38.448l-19.222 -1.984zM404.579 222.794c39.875 -0.438 71.84 -33.286 71.402 -73.162
s-33.283 -71.837 -73.162 -71.402c-39.875 0.438 -71.84 33.28 -71.402 73.158c0.438 39.878 33.283 71.843 73.162 71.405z" />
    <glyph glyph-name="swipe-left" unicode="&#xe91c;" 
d="M140.561 422.79c19.267 114.752 93.373 135.333 128.739 138.473c26.62 34.848 64.616 53.858 108.351 53.858c9.405 0 18.946 -0.867 28.531 -2.586c25.893 30.985 61.617 47.827 102.288 47.831c30.672 0 57.818 -9.61 76.511 -20.564l76.149 239.359
c15.609 49.626 56.673 80.84 107.195 80.84h0.02c38.177 0 74.077 -18.227 96.043 -48.128c21.223 -28.889 26.616 -65.07 15.187 -101.521l-96.111 -302.441c13.617 -7.843 25.753 -18.352 35.828 -31.017c19.669 -24.737 31.447 -57.493 34.997 -97.312
c5.277 -59.143 -14.3 -125.101 -58.179 -196.018c-29.58 -47.803 -62.625 -85.1 -76.129 -99.593l-45.152 -105.761c-11.019 -25.921 -36.334 -42.209 -64.496 -42.209h-300.594c-34.242 0 -63.295 24.03 -69.074 57.786c-0.137 0.799 -0.253 1.373 -0.349 2.177
l-12.605 105.251c-0.586 1.337 -1.273 2.843 -2.048 4.606c-67.323 153.427 -95.156 257.068 -85.1 316.97zM273.565 116.453c0.659 -1.558 1.128 -3.168 1.418 -4.835l13.179 -109.697c1.799 -10.513 10.915 -17.733 21.576 -17.733h300.594
c8.782 0 16.709 4.779 20.147 12.862l47.008 110.359c1.028 2.413 2.486 4.498 4.293 6.393c19.319 20.239 134.787 146.42 124.514 261.53c-6.084 68.166 -39.217 90.224 -61.85 97.324c-11.417 3.582 -17.613 15.898 -14.035 27.315l103.187 324.612
c16.175 51.602 -24.881 86.474 -65.263 86.47c-25.628 -0.004 -50.987 -14.059 -61.255 -46.807l-88.325 -277.159c-3.104 -9.911 -12.099 -15.444 -21.135 -15.444c-6.309 0 -12.641 2.703 -16.994 8.505c-3.698 4.923 -8.088 9.577 -13.296 13.601
c-11.585 8.959 -34.186 18.428 -58.854 18.428c-25.343 -0.004 -52.867 -9.995 -72.861 -40.783c-4.204 -6.473 -11.244 -10.276 -18.641 -10.276c-2.02 0 -4.064 0.285 -6.088 0.871c-8.762 2.55 -20.396 4.943 -33.234 4.939c-24.837 0 -54.143 -8.951 -75.712 -43.052
c-4.04 -6.389 -10.975 -10.336 -18.5 -10.336c-0.197 0 -0.39 0.004 -0.582 0.008c-0.763 0.02 -1.562 0.032 -2.381 0.032c-25.865 0 -77.708 -11.32 -92.389 -98.778c-13.645 -81.229 75.318 -274.376 85.478 -298.349zM556.108 819.451h-234.873l51.75 -51.754
c9.409 -9.409 9.409 -24.664 -0.004 -34.073c-4.702 -4.702 -10.87 -7.056 -17.035 -7.056s-12.332 2.353 -17.039 7.06l-89.895 89.899c-9.409 9.409 -9.409 24.664 0.004 34.073l92.26 92.26c9.405 9.405 24.664 9.409 34.073 -0.004
c9.409 -9.409 9.409 -24.664 -0.004 -34.073l-48.144 -48.144h228.906c13.308 0 24.094 -10.79 24.094 -24.094s-10.786 -24.094 -24.094 -24.094z" />
    <glyph glyph-name="swipe-right" unicode="&#xe91d;" 
d="M883.4 422.8c10.1 -59.9 -17.8 -163.5 -85.1 -317c-0.8 -1.8 -1.5 -3.3 -2 -4.6l-12.6 -105.2c-0.1 -0.8 -0.2 -1.4 -0.3 -2.2c-5.8 -33.8 -34.8 -57.8 -69.1 -57.8h-300.6c-28.2 0 -53.5 16.3 -64.5 42.2l-45.2 105.8c-13.5 14.5 -46.5 51.8 -76.1 99.6
c-43.9 70.9 -63.5 136.9 -58.2 196c3.5 39.8 15.3 72.6 35 97.3c10.1 12.7 22.2 23.2 35.8 31l-96.1 302.4c-11.4 36.5 -6 72.6 15.2 101.5c22 29.9 57.9 48.1 96 48.1v0c50.5 0 91.6 -31.2 107.2 -80.8l76.2 -239.3c18.7 11 45.8 20.6 76.5 20.6
c40.7 0 76.4 -16.8 102.3 -47.8c9.6 1.7 19.1 2.6 28.5 2.6c43.7 0 81.7 -19 108.4 -53.9c35.4 -3.2 109.5 -23.8 128.7 -138.5zM750.4 116.5c10.2 24 99.1 217.1 85.5 298.3c-14.7 87.5 -66.5 98.8 -92.4 98.8h-2.4h-0.6c-7.5 0 -14.5 3.9 -18.5 10.3
c-21.6 34.1 -50.9 43.1 -75.7 43.1c-12.8 0 -24.5 -2.4 -33.2 -4.9c-2 -0.6 -4.1 -0.9 -6.1 -0.9c-7.4 0 -14.4 3.8 -18.6 10.3c-20 30.8 -47.5 40.8 -72.9 40.8c-24.7 0 -47.3 -9.5 -58.9 -18.4c-5.2 -4 -9.6 -8.7 -13.3 -13.6c-4.4 -5.8 -10.7 -8.5 -17 -8.5
c-9 0 -18 5.5 -21.1 15.4l-88.3 277c-10.2 32.8 -35.6 46.8 -61.2 46.9c-40.4 0 -81.4 -34.9 -65.3 -86.5l103.2 -324.6c3.6 -11.4 -2.6 -23.7 -14 -27.3c-22.6 -7.1 -55.8 -29.2 -61.8 -97.3c-10.4 -115.2 105.1 -241.4 124.4 -261.6c1.8 -1.9 3.3 -4 4.3 -6.4l47 -110.4
c3.4 -8.1 11.4 -12.9 20.1 -12.9h300.6c10.7 0 19.8 7.2 21.6 17.7l13.2 109.8c0.3 1.7 0.8 3.3 1.4 4.9zM467.9 819.5c-13.3 0 -24.1 10.8 -24.1 24.1s10.8 24.1 24.1 24.1h228.9l-48.1 48.1c-9.4 9.4 -9.4 24.7 0 34.1s24.7 9.4 34.1 0l92.3 -92.3
c9.4 -9.4 9.4 -24.7 0 -34.1l-89.9 -89.9c-4.7 -4.7 -10.9 -7.1 -17 -7.1c-6.2 0 -12.3 2.4 -17 7.1c-9.4 9.4 -9.4 24.7 0 34.1l51.8 51.8z" />
    <glyph glyph-name="text" unicode="&#xe91e;" horiz-adv-x="922" 
d="M54.613 673.28h81.92v109.227h245.76v-669.013h-122.88v-81.92h409.6v81.92h-122.88v669.013h245.76v-109.227h81.92v232.107h-819.2z" />
    <glyph glyph-name="hexagon" unicode="&#xe921;" horiz-adv-x="937" 
d="M937.087 578.971c-2.681 -91.183 -3.797 -182.385 -3.35 -273.606c0.448 -91.223 -39.089 -158.456 -118.602 -201.702c-79.516 -43.248 -158.265 -87.871 -236.249 -133.873s-155.395 -45.033 -232.228 2.902c-76.836 47.937 -154.47 94.515 -232.899 139.734
c-78.431 45.219 -116.307 113.419 -113.626 204.602s3.796 182.385 3.348 273.608c-0.446 91.221 39.089 158.454 118.602 201.7c79.516 43.246 158.265 87.871 236.251 133.872c77.984 46.004 155.393 45.035 232.228 -2.9
c76.833 -47.937 154.466 -94.513 232.898 -139.734c78.431 -45.219 116.309 -113.419 113.628 -204.602z" />
    <glyph glyph-name="starred-badge" unicode="&#xe923;" 
d="M512 911.122c255.775 0 463.122 -207.347 463.122 -463.122s-207.347 -463.122 -463.122 -463.122c-255.775 0 -463.122 207.347 -463.122 463.122c0.463 255.589 207.533 462.659 463.077 463.122h0.045zM512 960c-282.77 0 -512 -229.23 -512 -512
s229.23 -512 512 -512s512 229.23 512 512s-229.23 512 -512 512zM591.427 556.754l-79.427 187.367l-79.427 -187.774l-203.66 -17.515l154.374 -133.601l-46.434 -199.586l175.147 105.903l175.147 -105.903l-46.434 199.994l154.781 133.601l-204.067 17.515z" />
    <glyph glyph-name="help" unicode="&#xe924;" 
d="M536.096 719.058c-36.142 12.046 -78.304 0 -108.423 -24.092s-48.188 -60.235 -48.188 -102.4c0 -18.069 12.046 -30.119 30.119 -30.119c18.069 0 30.119 12.046 30.119 30.119c0 18.069 6.023 42.165 24.092 54.212s36.142 18.069 60.235 12.046
c30.119 -6.023 48.188 -30.119 54.212 -54.212c6.023 -30.119 0 -54.212 -24.092 -72.284c-48.188 -36.142 -72.284 -90.354 -72.284 -144.565c0 -18.069 12.046 -30.119 30.119 -30.119c18.069 0 30.119 12.046 24.092 30.119c0 36.142 24.092 72.284 54.212 96.377
c42.165 36.142 60.235 84.331 48.188 132.519c-12.05 54.212 -54.212 90.354 -102.4 102.4zM487.908 231.15c-6.023 -6.023 -6.023 -18.069 -6.023 -24.092s0 -12.046 6.023 -18.069s18.069 -12.046 24.092 -12.046c6.023 0 18.069 6.023 18.069 12.046
c6.023 0 12.046 12.046 12.046 18.069c0 12.046 -6.023 18.069 -12.046 24.092c-12.046 12.05 -30.116 12.05 -42.162 0zM512 960c-283.108 0 -512 -228.892 -512 -512s228.892 -512 512 -512c283.108 0 512 228.892 512 512c0 283.108 -228.892 512 -512 512zM512 -3.765
c-246.965 0 -451.765 204.8 -451.765 451.765c0 246.965 204.8 451.765 451.765 451.765c246.965 0 451.765 -204.8 451.765 -451.765s-204.8 -451.765 -451.765 -451.765z" />
    <glyph glyph-name="spinner" unicode="&#xe984;" 
d="M0 576h384l-143.53 143.53c72.53 72.526 168.96 112.47 271.53 112.47c102.57 0 199 -39.944 271.53 -112.47c72.526 -72.53 112.47 -168.96 112.47 -271.53s-39.944 -199 -112.47 -271.53c-72.53 -72.526 -168.96 -112.47 -271.53 -112.47s-199 39.944 -271.528 112.472
c-6.056 6.054 -11.86 12.292 -17.456 18.668l-96.32 -84.282c93.846 -107.166 231.664 -174.858 385.304 -174.858c282.77 0 512 229.23 512 512s-229.23 512 -512 512c-141.386 0 -269.368 -57.326 -362.016 -149.984l-149.984 149.984z" />
    <glyph glyph-name="edit" unicode="&#xe9043;" 
d="M395.022 170.489l-160.711 160.711l446.933 446.933l59.733 -59.733l-270.222 -270.578c-11.378 -11.378 -11.378 -29.689 0 -41.067c5.689 -5.689 13.156 -8.533 20.444 -8.533c7.467 0 14.756 2.844 20.444 8.533l270.578 270.4l59.733 -59.733l-446.933 -446.933z
M211.022 272.533l125.511 -125.511l-158.222 -32.711zM903.467 637.867l-100.8 100.8v0v0l-100.8 100.8c-5.511 5.511 -12.8 8.533 -20.444 8.533s-15.111 -3.022 -20.444 -8.533l-488 -487.822c-4.089 -4.089 -6.756 -9.067 -7.822 -14.578l-52.622 -254.222
c-1.956 -9.6 1.067 -19.378 7.822 -26.311c5.511 -5.511 12.978 -8.533 20.444 -8.533c1.956 0 3.911 0.178 5.867 0.533l254.222 52.622c5.511 1.067 10.667 3.911 14.578 7.822l488 488c11.378 11.2 11.378 29.689 0 40.889v0z" />
    <glyph glyph-name="info" unicode="&#xe90b3;" 
d="M724.675 46.507l-14.308 -58.488c-42.923 -16.942 -77.21 -29.836 -102.742 -38.702c-25.559 -8.893 -55.258 -13.317 -89.095 -13.317c-51.963 0 -92.381 12.729 -121.207 38.013c-28.827 25.385 -43.244 57.552 -43.244 96.575c0 15.106 1.046 30.644 3.221 46.475
c2.193 15.85 5.681 33.7 10.453 53.652l53.643 189.865c4.772 18.181 8.829 35.407 12.078 51.697c3.295 16.189 4.882 31.084 4.882 44.493c0 24.247 -5.02 41.207 -15.014 50.743c-9.994 9.508 -29.065 14.335 -57.378 14.335c-13.867 0 -28.12 -2.221 -42.648 -6.516
c-14.592 -4.313 -27.065 -8.48 -37.536 -12.353l14.344 58.534c35.141 14.308 68.73 26.56 100.861 36.728c32.13 10.196 62.49 15.299 91.206 15.299c51.605 0 91.426 -12.472 119.39 -37.417c27.964 -24.963 41.941 -57.323 41.941 -97.199
c0 -8.251 -0.918 -22.788 -2.891 -43.566c-1.927 -20.824 -5.516 -39.904 -10.747 -57.259l-53.413 -189.103c-4.378 -15.189 -8.315 -32.553 -11.738 -52.092c-3.533 -19.41 -5.222 -34.241 -5.222 -44.19c0 -25.11 5.598 -42.253 16.822 -51.367
c11.307 -9.113 30.781 -13.647 58.442 -13.647c12.986 0 27.762 2.304 44.181 6.828c16.373 4.525 28.313 8.498 35.719 11.977zM738.221 840.417c0 -32.947 -12.417 -61.086 -37.371 -84.222c-24.889 -23.219 -54.882 -34.838 -89.967 -34.838
c-35.196 0 -65.261 11.619 -90.435 34.838c-25.128 23.146 -37.72 51.275 -37.72 84.222c0 32.883 12.592 61.067 37.72 84.497c25.128 23.393 55.249 35.086 90.435 35.086c35.076 0 65.078 -11.72 89.967 -35.086c24.972 -23.43 37.371 -51.624 37.371 -84.497z" />
    <glyph glyph-name="video2" unicode="&#xe90c3;" 
d="M683.378 448c0 11.022 -4.444 19.022 -13.333 24l-228.622 142.756c-9.244 5.867 -18.844 6.222 -28.978 0.889c-9.778 -5.333 -14.756 -13.689 -14.756 -24.889v-285.333c0 -11.378 4.978 -19.556 14.756 -24.889c4.8 -2.311 9.422 -3.556 13.867 -3.556
c5.867 0 11.022 1.422 15.111 4.444l228.622 142.756c8.889 4.8 13.333 12.8 13.333 23.822zM912 448c0 -28.444 -0.178 -50.844 -0.533 -66.844s-1.6 -36.267 -3.733 -60.8c-2.311 -24.533 -5.511 -46.4 -10.133 -65.778c-4.8 -21.689 -15.111 -40 -30.756 -54.756
c-15.822 -14.933 -34.311 -23.467 -55.289 -25.778c-66.133 -7.467 -165.867 -11.2 -299.556 -11.2s-233.422 3.733 -299.556 11.2c-21.156 2.311 -39.644 11.022 -55.644 25.778c-16 14.933 -26.311 33.067 -31.111 54.756c-4.089 19.378 -7.289 41.244 -9.6 65.778
s-3.556 44.8 -3.733 60.8c-0.356 16 -0.533 38.4 -0.533 66.844s0.178 50.844 0.533 66.844c0.356 16 1.6 36.267 3.733 60.8c2.311 24.533 5.511 46.4 10.133 65.778c4.8 21.689 15.111 40 30.756 54.756s34.311 23.467 55.289 25.778
c66.133 7.467 165.867 11.2 299.556 11.2s233.422 -3.733 299.556 -11.2c21.156 -2.311 39.644 -11.022 55.644 -25.778c16 -14.933 26.311 -33.067 31.111 -54.756c4.089 -19.378 7.289 -41.244 9.6 -65.778s3.556 -44.8 3.733 -60.8
c0.356 -16 0.533 -38.222 0.533 -66.844z" />
    <glyph glyph-name="image3" unicode="&#xe90e3;" 
d="M867.556 803.556h-711.111c-24.533 0 -44.444 -19.911 -44.444 -44.444v-622.222c0 -24.533 19.911 -44.444 44.444 -44.444h711.111c24.533 0 44.444 19.911 44.444 44.444v622.222c0 24.533 -19.911 44.444 -44.444 44.444v0zM823.111 203.556
c0 -12.267 -9.956 -22.222 -22.222 -22.222h-359.822l248.889 248.889l133.156 -133.156v-93.511h-0.001zM823.111 421.156l-96.533 96.533c-1.6 2.311 -3.378 4.444 -5.333 6.4c-8.711 8.711 -20.267 12.978 -31.644 12.978c-11.378 0.178 -22.756 -4.089 -31.467 -12.8
c-1.778 -1.778 -3.378 -3.733 -4.8 -5.689l-337.067 -337.244h-93.156c-12.267 0 -22.222 9.956 -22.222 22.222v488.889c0 12.267 9.956 22.222 22.222 22.222h577.778c12.267 0 22.222 -9.956 22.222 -22.222zM378.667 625.778c-49.067 0 -88.889 -39.822 -88.889 -88.889
s39.822 -88.889 88.889 -88.889s88.889 39.822 88.889 88.889s-39.822 88.889 -88.889 88.889v0z" />
    <glyph glyph-name="feedback_tab" unicode="&#xe9173;" 
d="M874.203 85.817c199.733 199.723 199.714 524.672 0.019 724.357c-199.743 199.762 -524.72 199.762 -724.425 0.048c-199.743 -199.714 -199.723 -524.701 0.019 -724.454c199.685 -199.694 524.663 -199.694 724.386 0.048zM205.671 754.348
c168.905 168.895 443.734 168.914 612.678 -0.019c168.905 -168.905 168.885 -443.763 -0.019 -612.658c-168.905 -168.905 -443.744 -168.924 -612.658 -0.019c-168.943 168.924 -168.924 443.792 0 612.697zM568.265 557.666c0 46.325 37.683 84.008 84.027 84.008
c46.315 0 83.999 -37.674 83.999 -84.008c0 -13.334 -10.804 -24.138 -24.138 -24.138s-24.138 10.804 -24.138 24.138c0 19.706 -16.027 35.733 -35.724 35.733c-19.716 0 -35.752 -16.027 -35.752 -35.733c0 -13.334 -10.804 -24.138 -24.138 -24.138
s-24.138 10.814 -24.138 24.138h0.002zM300.599 557.927c0 46.315 37.693 84.008 84.027 84.008c46.315 0 84.008 -37.683 84.008 -84.008c0 -13.334 -10.804 -24.138 -24.138 -24.138s-24.138 10.804 -24.138 24.138c0 19.706 -16.027 35.733 -35.733 35.733
c-19.716 0 -35.752 -16.027 -35.752 -35.733c0 -13.334 -10.804 -24.138 -24.138 -24.138s-24.138 10.814 -24.138 24.138h0.002zM289.891 342.138c-6.141 14.763 0.859 31.717 15.641 37.857c3.63 1.497 7.405 2.211 11.103 2.211c11.354 0 22.129 -6.71 26.754 -17.862
c26.812 -64.563 93.219 -106.253 169.185 -106.253c74.237 0 140.268 41.719 168.19 106.321c6.353 14.685 23.404 21.453 38.079 15.091s21.434 -23.404 15.081 -38.07c-37.104 -85.814 -123.999 -141.253 -221.36 -141.253
c-99.447 -0.01 -186.853 55.709 -222.673 141.958z" />
    <glyph glyph-name="Preview" unicode="&#xe91b3;" 
d="M512 576c34.6667 0 64.6667 -12.6667 90 -38s38 -55.3333 38 -90s-12.6667 -64.6667 -38 -90s-55.3333 -38 -90 -38s-64.6667 12.6667 -90 38s-38 55.3333 -38 90s12.6667 64.6667 38 90s55.3333 38 90 38zM512 234c58.6667 0 109 21 151 63s63 92.3333 63 151
s-21 109 -63 151s-92.3333 63 -151 63s-109 -21 -151 -63s-63 -92.3333 -63 -151s21 -109 63 -151s92.3333 -63 151 -63zM512 768c105.333 0 200.667 -29.3333 286 -88c85.3333 -58.6667 146.667 -136 184 -232c-37.3333 -96 -98.6667 -173.333 -184 -232
c-85.3333 -58.6667 -180.667 -88 -286 -88s-200.667 29.3333 -286 88c-85.3333 58.6667 -146.667 136 -184 232c37.3333 96 98.6667 173.333 184 232s180.667 88 286 88z" />
    <glyph glyph-name="audio2" unicode="&#xe91c3;" 
d="M641.067 570.844l-22.044 -45.156c21.156 -18.133 34.667 -45.156 34.667 -75.2c0 -33.067 -7.467 -63.111 -32.533 -81.067l21.333 -38.222c32.711 29.333 53.156 71.822 53.156 119.111c0 48.178 -20.978 91.2 -54.578 120.533v0zM805.333 728.889l-31.111 -37.689
c58.133 -63.467 94.756 -147.911 94.756 -240.533s-36.622 -176.889 -94.578 -240.356l31.111 -38.578c66.311 74.489 106.311 171.022 106.311 278.933c0.178 107.556 -40.533 203.733 -106.489 278.222v0v0.001zM722.844 651.733l-27.733 -39.822
c41.244 -41.422 67.378 -98.311 67.378 -161.244c0 -64.178 -27.2 -122.311 -69.867 -163.911l28.8 -38.222c51.556 52.622 82.489 122.667 82.489 202.133c0 77.867 -31.289 148.622 -81.067 201.067v0zM112 539.022v-180.8c0 -23.111 20.089 -52.622 44.622 -52.622
h134.756v289.244h-134.756c-24.533 0 -44.622 -32.711 -44.622 -55.822h-4.26326e-14zM499.733 726.578l-187.378 -129.067v-296.178l187.378 -130.489c24.711 0 60.089 18.667 60.089 41.778v472.178c0 23.111 -35.556 41.778 -60.089 41.778z" />
  </font>
</defs>
</svg>
